<?xml version="1.0" encoding="utf-8"?>
<!-- Generator: Adobe Illustrator 27.0.0, SVG Export Plug-In . SVG Version: 6.00 Build 0)  -->
<svg version="1.1" id="Outline" xmlns="http://www.w3.org/2000/svg" xmlns:xlink="http://www.w3.org/1999/xlink" x="0px" y="0px"
	 viewBox="0 0 612 792" style="enable-background:new 0 0 612 792;" xml:space="preserve">
<style type="text/css">
	.st0{fill:#FD4E17;}
	.st1{fill:#BE1E2D;}
</style>
<polygon points="465.37,344.1 442.87,374.52 374.7,466.69 268.25,613.41 306.41,665 504.56,397.09 "/>
<polygon points="415.58,280.22 393.05,310.68 324.88,402.85 218.43,549.57 256.59,601.16 454.77,333.21 "/>
<path class="st0" d="M366.63,215.54L207.65,430.47c0,0-0.05-0.04-0.1-0.13l-10.77-14.55c-0.03-0.05-0.05-0.11-0.1-0.16
	c-22.9-34.38-68.49-97.28,37.89-145.84c146.5-66.88-66.75-213.73-47.48-198.23s124.06,98.46,0.91,166.53
	c-31.52,17.42-43.83,13.7-68.09,37.44c-57.9,56.66-16.2,119.75-11.83,126.3c0.08,0.09,0.1,0.16,0.15,0.22
	c0.08,0.13,0.13,0.18,0.13,0.18l99.28,134.23l198.18-267.94L366.63,215.54z"/>
<path class="st1" d="M293.76,247.85"/>
<rect x="339.45" y="439.05" width="93.92" height="31.09"/>
<path d="M269.68,259.54"/>
</svg>
